<?xml version="1.0" standalone="no"?>
<!DOCTYPE svg PUBLIC "-//W3C//DTD SVG 20010904//EN"
 "http://www.w3.org/TR/2001/REC-SVG-20010904/DTD/svg10.dtd">
<svg version="1.0" xmlns="http://www.w3.org/2000/svg"
 width="742.000000pt" height="345.000000pt" viewBox="0 0 742.000000 345.000000"
 preserveAspectRatio="xMidYMid meet">
<metadata>
Created by potrace 1.16, written by Peter Selinger 2001-2019
</metadata>
<g transform="translate(0.000000,345.000000) scale(0.100000,-0.100000)"
fill="#000000" stroke="none">
<path d="M3760 1565 l0 -1095 1590 0 1590 0 0 1095 0 1095 -1590 0 -1590 0 0
-1095z m1040 900 c80 -8 176 -29 252 -57 l57 -20 -5 -42 c-3 -22 -13 -130 -23
-239 -10 -109 -21 -200 -24 -203 -3 -3 -36 4 -74 15 -101 29 -177 41 -269 41
-159 0 -238 -32 -232 -94 5 -54 48 -68 222 -77 171 -9 237 -26 324 -86 117
-80 172 -200 172 -379 0 -109 -26 -219 -72 -307 -45 -87 -164 -203 -251 -245
-173 -84 -394 -108 -567 -63 -95 24 -266 84 -322 113 -44 22 -43 13 -23 203 8
77 18 172 21 212 9 97 11 100 70 70 118 -59 256 -89 409 -91 144 -1 185 19
185 89 0 51 -96 85 -238 85 -164 0 -288 63 -380 191 -98 137 -110 378 -26 545
62 123 146 202 289 272 148 73 267 89 505 67z m1029 -347 c24 -134 46 -246 50
-250 3 -3 71 106 151 242 l145 249 45 0 c79 0 519 -35 526 -41 3 -4 -140 -211
-319 -460 l-325 -454 -11 -254 c-6 -140 -13 -289 -16 -330 -2 -41 -4 -96 -5
-122 l0 -48 -286 0 -287 0 7 373 c8 394 8 398 -40 502 -34 75 -284 731 -284
746 0 14 23 19 133 33 72 10 193 26 267 36 74 10 151 18 171 19 l35 1 43 -242z"/>
<path d="M2740 2395 c-118 -7 -233 -13 -256 -14 l-41 -1 -47 -157 c-26 -87
-72 -241 -103 -343 -30 -102 -70 -234 -88 -295 -18 -60 -52 -173 -75 -250 -23
-77 -54 -184 -70 -238 -69 -230 -89 -301 -86 -304 7 -8 591 -61 597 -55 7 8
59 225 59 247 0 13 23 15 139 15 l139 0 21 -82 c53 -202 48 -191 84 -184 18 3
147 19 287 37 140 18 258 35 262 38 4 3 -29 130 -73 281 -146 504 -259 893
-321 1108 l-61 212 -76 -1 c-42 -1 -173 -8 -291 -14z m79 -822 c23 -106 39
-197 36 -203 -3 -5 -42 -10 -86 -10 -69 0 -79 2 -79 18 0 9 16 91 35 182 43
206 45 213 49 209 2 -2 22 -91 45 -196z"/>
<path d="M993 2322 c-156 -20 -283 -39 -283 -43 0 -4 76 -205 170 -446 l169
-440 -5 -294 c-2 -162 -6 -327 -8 -367 l-4 -72 284 0 284 0 0 43 c0 23 7 188
15 367 8 179 15 328 15 331 0 3 146 210 325 459 178 250 323 455 322 456 -4 4
-560 45 -562 42 -1 -2 -69 -117 -151 -256 -89 -153 -150 -248 -155 -240 -3 7
-26 122 -50 255 -40 223 -46 243 -64 242 -11 -1 -147 -18 -302 -37z"/>
</g>
</svg>
